<svg width="75" height="75" viewBox="0 0 75 75" fill="none" xmlns="http://www.w3.org/2000/svg">
<path d="M0 24.6094V22.2656C0 20.324 1.57397 18.75 3.51562 18.75H56.25V11.7187C56.25 8.58882 60.0438 7.0251 62.2516 9.23276L73.9704 20.9515C75.3432 22.3245 75.3432 24.5505 73.9704 25.9233L62.2516 37.6421C60.0521 39.8411 56.25 38.2992 56.25 35.1562V28.125H3.51562C1.57397 28.125 0 26.551 0 24.6094ZM71.4844 46.875H18.75V39.8437C18.75 36.7216 14.9616 35.1445 12.7484 37.3578L1.02964 49.0765C-0.343213 50.4495 -0.343213 52.6755 1.02964 54.0483L12.7484 65.7671C14.9498 67.9683 18.75 66.4214 18.75 63.2812V56.25H71.4844C73.426 56.25 75 54.676 75 52.7344V50.3906C75 48.449 73.426 46.875 71.4844 46.875Z" fill="black"/>
</svg>
