<svg width="94" height="75" viewBox="0 0 94 75" fill="none" xmlns="http://www.w3.org/2000/svg">
<g clip-path="url(#clip0)">
<path d="M92.2349 50.3317L77.486 65.0807C76.113 66.4535 73.8872 66.4535 72.5142 65.0807L57.7651 50.3317C56.3921 48.9587 56.3921 46.7328 57.7651 45.3599L59.3505 43.7745C60.7512 42.3738 63.0321 42.4063 64.3923 43.8466L70.3125 50.1149V23.4375H42.8395C41.9071 23.4375 41.0129 23.0671 40.3535 22.4079L38.0098 20.0641C35.7951 17.8493 37.3636 14.0625 40.4958 14.0625H76.1719C78.1135 14.0625 79.6875 15.6365 79.6875 17.5781V50.1149L85.6078 43.8466C86.9679 42.4065 89.2488 42.3738 90.6497 43.7745L92.2351 45.3599C93.6079 46.7328 93.6079 48.9589 92.2349 50.3317V50.3317ZM53.3964 52.5921C53.0699 52.2657 52.6823 52.0067 52.2558 51.8301C51.8292 51.6534 51.372 51.5625 50.9104 51.5625H23.4375V24.8849L29.3578 31.1533C30.7181 32.5934 32.9988 32.626 34.3997 31.2252L35.9849 29.6399C37.3579 28.2669 37.3579 26.041 35.9849 24.6681L21.236 9.91934C19.863 8.54634 17.637 8.54634 16.2642 9.91934L1.5151 24.6683C0.142102 26.0413 0.142102 28.2672 1.5151 29.6401L3.10035 31.2253C4.50104 32.626 6.78195 32.5935 8.1422 31.1534L14.0625 24.8849V57.4219C14.0625 59.3635 15.6365 60.9375 17.5781 60.9375H53.2543C56.3864 60.9375 57.9549 57.1507 55.7402 54.9359L53.3964 52.5921V52.5921Z" fill="black"/>
</g>
<defs>
<clipPath id="clip0">
<rect width="93.75" height="75" fill="white"/>
</clipPath>
</defs>
</svg>
